<?xml version="1.0" encoding="utf-8"?>
<!-- Generator: Adobe Illustrator 19.2.1, SVG Export Plug-In . SVG Version: 6.00 Build 0)  -->
<svg version="1.1" id="Layer_1" xmlns="http://www.w3.org/2000/svg" xmlns:xlink="http://www.w3.org/1999/xlink" x="0px" y="0px"
	 viewBox="0 0 32 32" style="enable-background:new 0 0 32 32;" xml:space="preserve">
<style type="text/css">
	.st0{clip-path:url(#SVGID_2_);fill:#52658A;}
	.st1{fill:#067C2D;}
</style>
<g>
	<g>
		<defs>
			<rect id="SVGID_1_" x="4.8" y="3.9" width="23" height="23.5"/>
		</defs>
		<clipPath id="SVGID_2_">
			<use xlink:href="#SVGID_1_"  style="overflow:visible;"/>
		</clipPath>
		<path class="st0" d="M10.3,4.4c0,0-0.5,0-0.9,0.4L5.2,9c0,0-0.4,0.4-0.4,0.9v17c0,0,0,0.5,0.5,0.5h17c0,0,0.5,0,0.5-0.5V15.6l-2,0
			v9.7h-14v-14h5v-5h2.9c0,0,0.3-1.2,1-2"/>
	</g>
</g>
<path class="st1" d="M21.3,2.2C17.8,2.2,15,5,15,8.5c0,3.5,2.9,6.4,6.4,6.4c3.5,0,6.4-2.9,6.4-6.4C27.7,5,24.9,2.2,21.3,2.2z
	 M21.3,14.3c-3.2,0-5.8-2.6-5.8-5.8c0-3.2,2.6-5.8,5.8-5.8c3.2,0,5.8,2.6,5.8,5.8C27.1,11.7,24.5,14.3,21.3,14.3z M23.9,4
	c-1.1-0.6-2.5-0.1-3,1c-0.6,1.1-0.4,2.8,0.4,3.6c0.6,0.5,1.3,0.6,2.3,0l0.3,0.5c-0.6,0.3-1.1,0.5-1.5,0.5c-0.7,0-1.2-0.3-1.4-0.6
	c-1-1-1.2-2.9-0.5-4.3c0.4-0.7,0.9-1.1,1.6-1.3c-0.2,0-0.4,0-0.6,0c-2.9,0-5.2,2.3-5.2,5.2c0,2.7,2,4.9,4.6,5.2v-2.5h0.6v2.6
	c1,0,1.9-0.3,2.7-0.8L23,11.6l0.2-0.2c0,0,1.5-1.2,1.7-2.7l0.6,0.1c-0.1,1.3-1.2,2.4-1.7,2.9l0.7,0.8c1.2-1,1.9-2.4,1.9-4
	C26.5,6.6,25.5,4.9,23.9,4z M24.4,6.9c-0.2,0-0.4-0.2-0.4-0.4S24.1,6,24.4,6c0.2,0,0.4,0.2,0.4,0.4S24.6,6.9,24.4,6.9z"/>
</svg>

