<?xml version="1.0" encoding="UTF-8" standalone="no"?>
<svg xmlns="http://www.w3.org/2000/svg" version="1.1" width="80" height="80" viewBox="0 0 292.666 292.816" xml:space="preserve"><path d="m282.19,146.408c0,75.034-60.819,135.857-135.857,135.857C71.3,282.265 10.477,221.442 10.477,146.408 10.477,71.377 71.3,10.552 146.333,10.552 221.371,10.551 282.19,71.376 282.19,146.408z" style="fill:#067c2d;stroke:#fff;stroke-width:10;stroke-miterlimit:4;stroke-dasharray:none" /><g style="fill:#fff"><path d="m219.862,105.949c-1.636,4.971-6.998,7.671-11.963,6.032-4.971,-1.639-7.676,-6.995-6.035,-11.965 1.636,-4.974 6.998,-7.671 11.963,-6.035 4.973,1.642 7.675,6.997 6.035,11.968z"/><path d="m146.33,23.189c-67.94,0-123.216,55.278-123.216,123.222 0,67.941 55.275,123.217 123.216,123.217 67.944,0 123.223,-55.275 123.223,-123.217C269.552,78.467 214.274,23.189 146.33,23.189zm69.307,209.302-15.149,-17.966c10.123,-9.217 32.246,-32.375 35.328,-61.125l-12.563,-1.346c-3.357,31.28-35.202,56.521-35.52,56.769l-5.181,4.039 22.773,27.007c-16.92,10.719-36.923,16.984-58.366,17.105v-54.878h-12.638v54.229c-55.343,-6.007-98.57,-52.998-98.57,-109.915 0,-60.977 49.604,-110.584 110.578,-110.584 4.348,0 8.63,0.281 12.848,0.771-14.218,4.646-25.72,14.279-33.365,28.481-15.541,28.864-11.027,70.477 9.852,90.868 5.819,5.684 15.982,12.675 30.746,12.675 9.034,0 19.79,-2.616 32.326,-9.756l-6.251,-10.98c-19.417,11.055-36.014,10.715-47.991,-0.979-16.893,-16.498-20.422,-51.934-7.556,-75.836 11.817,-21.953 42.141,-32.863 64.84,-20.277 32.934,19.173 55.137,54.84 55.137,95.616 0,34.753-16.128,65.796-41.278,86.082z"/></g></svg>